<svg version="1.2" xmlns="http://www.w3.org/2000/svg" viewBox="0 0 250 98" width="250" height="98">
	<title>1-svg</title>
	<style>
		.s0 { fill: #30b656 } 
		.s1 { fill: #7b7c7b } 
	</style>
	<path id="80%" fill-rule="evenodd" class="s0" d="m67.2 31.5c-2.4-1.7-4-4.8-4-8.2 0-7.3 5.4-12.6 15.7-12.6 10.4 0 15.9 5.1 15.9 12.6 0 3.4-1.6 6.6-4.1 8.3 3.3 1.9 5.2 5.4 5.2 9.6 0 8.4-6.3 13.5-16.9 13.5-10.6 0-16.8-5.1-16.8-13.5 0-4.2 1.9-7.7 5-9.7zm15.5-5.2c0-1.9-1.6-3.5-3.7-3.5-2.1 0-3.7 1.6-3.7 3.5 0 1.9 1.6 3.5 3.7 3.5 2.1 0 3.7-1.6 3.7-3.5zm1.1 15c0-2.4-2.1-4.4-4.8-4.4-2.6 0-4.8 2-4.8 4.4 0 2.4 2.2 4.3 4.8 4.3 2.7 0 4.8-1.9 4.8-4.3zm14.4-8.5c0-13.6 7.5-22.1 18.5-22.1 11.1 0 18.8 8.5 18.8 22.1 0 13.8-7.2 21.9-18.6 21.9-11.6 0-18.7-8.1-18.7-21.9zm25.2 0.7c0-5.6-2.9-10.1-6.6-10.1-3.6 0-6.5 4.5-6.5 10.1 0 5.5 2.9 10.1 6.5 10.1 3.7 0 6.6-4.6 6.6-10.1zm25.2 0.2c-6.1 0-11.1-5.1-11.1-11.5 0-6.3 5-11.5 11.1-11.5 6.2 0 11.1 5.2 11.1 11.5 0 6.4-4.9 11.5-11.1 11.5zm3.9 20.2h-9.4l28.7-42.3h9.4zm-1.2-31.3c0-2-1.2-3.7-2.7-3.7-1.4 0-2.6 1.7-2.6 3.7 0 2.1 1.2 3.8 2.6 3.8 1.5 0 2.7-1.7 2.7-3.8zm24.3 32.1c-6.2 0-11.1-5.2-11.1-11.5 0-6.4 4.9-11.5 11.1-11.5 6.1 0 11.1 5.1 11.1 11.5 0 6.3-5 11.5-11.1 11.5zm2.6-11.1c0-2-1.2-3.7-2.6-3.7-1.5 0-2.7 1.7-2.7 3.7 0 2.1 1.2 3.8 2.7 3.8 1.4 0 2.6-1.7 2.6-3.8z"/>
	<path id="14-19 age group" fill-rule="evenodd" class="s1" d="m32.2 63.6h-2.3v-2h4.5v17.4h-2.2zm14.3 11.5h-8.9v-1.7l8.5-11.6h2.6v11.4h2.4v1.9h-2.4v3.9h-2.2zm0.1-1.9v-9.2l-6.4 9.2zm6.5-4h9.6v1.9h-9.6zm15.1-5.7h-2.3v-2h4.5v17.4h-2.2zm8.7 10.7c0.3 1.8 1.5 2.8 3.5 2.8 2.5 0 3.9-1.7 3.8-6.8-0.7 1.5-2.4 2.3-4.3 2.3-3.1 0-5.5-2-5.5-5.6 0-3.4 1.9-5.8 5.7-5.8 4.7 0 6.1 3.4 6.1 8.7 0 5.8-1.4 9.1-5.9 9.1-3.5 0-5.2-2.2-5.4-4.7zm7.1-7.2c0-2.4-1.4-4-3.9-4-2.2 0-3.7 1.5-3.7 3.8 0 2.2 1.3 3.9 3.9 3.9 2.1 0 3.7-1.4 3.7-3.7zm17.4-1.5c2.5 0 4.1 1.2 4.9 2.6v-2.4h2.2v13.1h-2.2v-2.4c-0.8 1.4-2.5 2.6-4.9 2.6-3.5 0-6.2-2.7-6.2-6.8 0-4.1 2.7-6.7 6.2-6.7zm0.4 1.9c-2.4 0-4.4 1.7-4.4 4.8 0 3.1 2 4.9 4.4 4.9 2.4 0 4.5-1.8 4.5-4.9 0-3-2.1-4.8-4.5-4.8zm15.8-1.9c2.4 0 4.2 1.2 4.9 2.6v-2.4h2.2v13.4c0 3.6-2.4 6.2-6.3 6.2-3.4 0-5.9-1.7-6.3-4.5h2.1c0.5 1.5 2.1 2.6 4.2 2.6 2.4 0 4.1-1.5 4.1-4.3v-2.7c-0.8 1.4-2.5 2.6-4.9 2.6-3.5 0-6.2-2.7-6.2-6.8 0-4.1 2.7-6.7 6.2-6.7zm0.5 1.9c-2.4 0-4.5 1.7-4.5 4.8 0 3.1 2.1 4.9 4.5 4.9 2.4 0 4.4-1.8 4.4-4.9 0-3-2-4.8-4.4-4.8zm16 11.6c-3.7 0-6.5-2.6-6.5-6.8 0-4.1 2.7-6.7 6.5-6.7 3.8 0 6.3 2.7 6.3 6.3 0 0.4 0 0.8 0 1.3h-10.6c0.2 2.6 2.1 4.1 4.3 4.1 2 0 3.2-1 3.7-2.4h2.4c-0.7 2.4-2.8 4.2-6.1 4.2zm-4.2-7.7h8.3c0-2.6-1.9-4-4.2-4-2.1 0-3.9 1.4-4.1 4zm25.2-5.8c2.4 0 4.2 1.2 4.9 2.6v-2.4h2.2v13.4c0 3.6-2.4 6.2-6.2 6.2-3.5 0-6-1.7-6.4-4.5h2.2c0.4 1.5 2 2.6 4.2 2.6 2.3 0 4-1.5 4-4.3v-2.7c-0.8 1.4-2.5 2.6-4.9 2.6-3.5 0-6.2-2.7-6.2-6.8 0-4.1 2.7-6.7 6.2-6.7zm0.5 1.9c-2.4 0-4.5 1.7-4.5 4.8 0 3.1 2.1 4.9 4.5 4.9 2.4 0 4.4-1.8 4.4-4.9 0-3-2-4.8-4.4-4.8zm12.5 11.4h-2.2v-13.1h2.2v2.1c0.8-1.4 2.2-2.4 4.3-2.4v2.3h-0.6c-2.1 0-3.7 0.9-3.7 4zm12.5 0.2c-3.7 0-6.5-2.6-6.5-6.8 0-4.2 2.9-6.8 6.6-6.8 3.8 0 6.7 2.6 6.7 6.8 0 4.2-3 6.8-6.8 6.8zm0-1.9c2.3 0 4.5-1.6 4.5-4.9 0-3.3-2.1-4.9-4.4-4.9-2.3 0-4.4 1.6-4.4 4.9 0 3.3 2.1 4.9 4.3 4.9zm21.3 1.7h-2.2v-2c-0.8 1.4-2.4 2.2-4.2 2.2-3 0-5.4-1.9-5.4-5.7v-7.7h2.2v7.4c0 2.7 1.5 4.1 3.7 4.1 2.2 0 3.7-1.4 3.7-4.2v-7.3h2.2zm10.8-13.3c3.5 0 6.3 2.6 6.3 6.7 0 4.1-2.8 6.8-6.3 6.8-2.4 0-4.1-1.3-4.9-2.6v8.7h-2.2v-19.4h2.2v2.4c0.8-1.4 2.5-2.6 4.9-2.6zm-0.4 1.9c-2.4 0-4.5 1.8-4.5 4.8 0 3.1 2.1 4.9 4.5 4.9 2.4 0 4.4-1.8 4.4-4.9 0-3.1-2-4.8-4.4-4.8z"/>
</svg>