<svg version="1.2" xmlns="http://www.w3.org/2000/svg" viewBox="0 0 250 98" width="250" height="98">
	<title>1-svg</title>
	<style>
		tspan { white-space:pre } 
		.s0 { fill: #30b656 } 
		.s1 { fill: #848585 } 
	</style>
	<path id="70%" fill-rule="evenodd" class="s0" d="m84.6 23.6h-17.4v-12.1h30.1v11.5l-15.4 31h-13.6zm15.1 9.2c0-13.6 7.5-22.1 18.6-22.1 11.1 0 18.8 8.5 18.8 22.1 0 13.8-7.2 22-18.7 22-11.6 0-18.7-8.2-18.7-22zm25.3 0.7c0-6.4-2.5-10.1-6.7-10.1-4.1 0-6.5 3.7-6.5 10.1 0 6.3 2.4 10.1 6.5 10.1 4.2 0 6.7-3.8 6.7-10.1zm25.3 0.2c-6.3 0-11.2-4.3-11.2-11.5 0-7.3 5-11.5 11.2-11.5 6.2 0 11.1 4.2 11.1 11.5 0 7.2-4.8 11.5-11.1 11.5zm3.9 20.3h-9.5l28.8-42.5h9.5zm-6.6-31.4c0 2.4 1 3.9 2.7 3.9 1.7 0 2.6-1.5 2.6-3.9 0-2.4-1-3.7-2.7-3.7-1.6 0-2.6 1.3-2.6 3.7zm29.7 32.2c-6.3 0-11.2-4.3-11.2-11.5 0-7.3 5-11.5 11.2-11.5 6.2 0 11.1 4.2 11.1 11.5 0 7.2-4.8 11.5-11.1 11.5zm-2.7-11.1c0 2.3 1 3.8 2.7 3.8 1.7 0 2.6-1.5 2.6-3.8 0-2.4-1-3.7-2.7-3.7-1.6 0-2.6 1.3-2.6 3.7z"/>
	<path id="20-29 age group" fill-rule="evenodd" class="s1" d="m25.3 78.6c5.1-3.8 9.6-7.7 9.6-11.5 0-2.1-0.9-3.8-3.7-3.8-2.6 0-3.9 1.8-4.1 4.3h-1.7c0.2-3.8 2.5-5.8 5.8-5.8 3.2 0 5.4 1.8 5.4 5.2 0 4.6-5.1 8.8-8.7 11.4h9.3v1.5h-11.9zm20.7-16.8c4.9 0 6.1 3.9 6.1 9 0 5.3-1.2 9.2-6.1 9.2-4.9 0-6.1-3.9-6.1-9.2 0-5.1 1.2-9 6.1-9zm0 1.6c-3.8 0-4.3 3.4-4.3 7.4 0 4.2 0.5 7.6 4.3 7.6 3.8 0 4.4-3.4 4.4-7.6-0.1-4-0.6-7.4-4.4-7.4zm8.5 6.6h9.7v1.4h-9.7zm13.5 8.7c5.1-3.9 9.6-7.8 9.6-11.6 0-2.1-0.9-3.8-3.7-3.8-2.7 0-3.9 1.9-4.1 4.4h-1.7c0.2-3.8 2.5-5.9 5.8-5.9 3.1 0 5.4 1.8 5.4 5.2 0 4.6-5.1 8.8-8.7 11.4h9.3v1.5h-11.9zm16.9-3.4c0.4 2.1 1.7 3.4 4 3.4 3 0 4.6-2.1 4.5-8-0.7 1.9-2.6 3-4.9 3-3.4 0-5.8-2.2-5.8-6 0-3.2 1.9-5.9 5.9-5.9 5 0 6.3 3.7 6.3 9 0 5.9-1.4 9.4-6.1 9.4-3.5 0-5.2-2.2-5.5-4.9zm8.2-7.3c0-2.6-1.4-4.7-4.5-4.7-2.6 0-4.3 1.7-4.3 4.4 0 2.8 1.6 4.5 4.5 4.5 2.3 0 4.3-1.5 4.3-4.2zm18-1.8c2.8 0 4.7 1.5 5.5 3.2v-3h1.7v13.7h-1.7v-3.1c-0.8 1.8-2.8 3.3-5.5 3.3-3.7 0-6.5-2.8-6.5-7.1 0-4.2 2.8-7 6.5-7zm0.4 1.5c-2.9 0-5.1 2-5.1 5.5 0 3.5 2.2 5.5 5.1 5.5 2.8 0 5.1-2 5.1-5.5 0-3.3-2.3-5.5-5.1-5.5zm16.5-1.5c2.7 0 4.7 1.5 5.4 3.2v-3h1.8v14c0 3.8-2.7 6.4-6.4 6.4-3.5 0-6-1.8-6.5-4.7h1.7c0.6 1.9 2.3 3.1 4.8 3.1 2.6 0 4.6-1.7 4.6-4.8v-3.4c-0.8 1.8-2.7 3.3-5.4 3.3-3.7 0-6.5-2.8-6.5-7.1 0-4.3 2.8-7 6.5-7zm0.4 1.5c-2.9 0-5.1 2-5.1 5.5 0 3.5 2.2 5.5 5 5.5 2.9 0 5.1-2 5.1-5.5 0-3.3-2.2-5.5-5-5.5zm16.7 12.6c-3.9 0-6.7-2.7-6.7-7.1 0-4.3 2.8-7 6.7-7 4 0 6.4 2.9 6.4 6.3 0 0.6 0 0.9 0 1.4h-11.3c0.1 3.2 2.3 4.9 4.9 4.9 2.3 0 3.9-1.2 4.4-3.1h1.8c-0.6 2.6-2.8 4.6-6.2 4.6zm-4.9-7.8h9.6c0-3.2-2.3-4.8-4.8-4.8-2.5 0-4.6 1.6-4.8 4.8zm27.1-6.3c2.7 0 4.6 1.5 5.4 3.2v-3h1.7v14c0 3.8-2.6 6.4-6.3 6.4-3.6 0-6-1.8-6.6-4.7h1.8c0.5 1.9 2.3 3.1 4.8 3.1 2.6 0 4.6-1.7 4.6-4.8v-3.4c-0.8 1.8-2.7 3.3-5.4 3.3-3.8 0-6.5-2.8-6.5-7.1 0-4.3 2.7-7 6.5-7zm0.3 1.5c-2.8 0-5.1 2-5.1 5.5 0 3.5 2.3 5.5 5.1 5.5 2.8 0 5.1-2 5.1-5.5 0-3.3-2.3-5.5-5.1-5.5zm12.6 12.4h-1.8v-13.7h1.8v2.5c0.7-1.7 2.3-2.7 4.7-2.7v1.8h-0.5c-2.3 0-4.2 1-4.2 4.4zm13.3 0.3c-3.9 0-6.8-2.8-6.8-7.1 0-4.3 3-7 6.8-7 3.9 0 6.8 2.7 6.8 7 0 4.3-3 7-6.8 7zm0-1.5c2.6 0 5.1-1.7 5.1-5.5 0-3.7-2.5-5.5-5.1-5.5-2.6 0-5 1.8-5 5.5 0 3.8 2.4 5.5 5 5.5zm21.9 1.3h-1.8v-2.4c-0.8 1.8-2.6 2.7-4.6 2.7-3.1 0-5.6-1.9-5.6-5.9v-8h1.7v7.8c0 3 1.7 4.6 4.2 4.6 2.6 0 4.3-1.7 4.3-5v-7.4h1.8zm11.1-13.9c3.8 0 6.5 2.8 6.5 7 0 4.3-2.7 7.1-6.5 7.1-2.7 0-4.6-1.5-5.4-3.2v9.4h-1.7v-20.1h1.7v3c0.8-1.7 2.7-3.1 5.4-3.1zm-0.3 1.5c-2.8 0-5.1 2.1-5.1 5.5 0 3.4 2.3 5.5 5.1 5.5 2.9 0 5.1-2.1 5.1-5.5 0-3.5-2.2-5.5-5.1-5.5z"/>
</svg>