<svg version="1.2" xmlns="http://www.w3.org/2000/svg" viewBox="0 0 250 98" width="250" height="98">
	<title>1-svg</title>
	<style>
		tspan { white-space:pre } 
		.s0 { fill: #30b656 } 
		.s1 { fill: #7e807f } 
	</style>
	<path id="67%" fill-rule="evenodd" class="s0" d="m100.4 11.9l-0.8 12.4c-2.2-0.6-4.5-0.9-7-0.9-7 0-9.1 2.9-9.9 5.7 1.8-1.6 4.2-2.3 7.6-2.3 8.2 0 13.6 4 13.6 12.5 0 9.6-6.2 14.7-16.1 14.7-11.2 0-17.6-7-17.6-20.9 0-14.4 8.5-22.4 21-22.4 3.9 0 7.7 0.6 9.2 1.2zm-8.6 27.5c0-2.3-1.6-3.9-4.7-3.9-2.1 0-3.8 0.6-4.9 1.1-0.1 3.8 1.3 6.8 5.1 6.8 2.8 0 4.5-1.4 4.5-4zm30.4-15.8h-17.4v-12.1h30.1v11.5l-15.5 31h-13.5zm25.3 10.1c-6.3 0-11.1-4.3-11.1-11.5 0-7.3 5-11.5 11.1-11.5 6.2 0 11.2 4.2 11.2 11.5 0 7.2-4.8 11.5-11.2 11.5zm3.9 20.3h-9.4l28.8-42.5h9.4zm-6.5-31.4c0 2.4 1 3.9 2.6 3.9 1.7 0 2.7-1.5 2.7-3.9 0-2.4-1.1-3.7-2.7-3.7-1.6 0-2.6 1.3-2.6 3.7zm29.7 32.2c-6.4 0-11.2-4.3-11.2-11.5 0-7.3 5-11.5 11.2-11.5 6.2 0 11.1 4.2 11.1 11.5 0 7.2-4.8 11.5-11.1 11.5zm-2.7-11.1c0 2.3 1 3.8 2.7 3.8 1.7 0 2.6-1.5 2.6-3.8 0-2.4-1-3.7-2.7-3.7-1.6 0-2.6 1.3-2.6 3.7z"/>
	<path id="30-39 age group" fill-rule="evenodd" class="s1" d="m35.1 62.3c3.4 0 5.3 2 5.3 4.5 0 2-1.3 3.5-3.1 3.9v0.2c2 0.4 3.4 1.9 3.4 4.4 0 2.7-1.9 4.8-5.5 4.8-3.3 0-5.8-1.7-6-5.1h2.1c0.2 1.9 1.5 3.3 3.9 3.3 2.3 0 3.4-1.4 3.4-3.2 0-2.4-1.7-3.4-4.8-3.4h-0.6v-1.8h0.6c2.9 0 4.4-0.9 4.4-2.9 0-1.7-1.1-2.8-3.1-2.8-2.1 0-3.3 1.1-3.5 2.8h-2.2c0.3-3 2.5-4.7 5.7-4.7zm14.6 0.1c4.7 0 6 3.8 6 8.7 0 5.1-1.3 8.9-6 8.9-4.8 0-6.1-3.8-6.1-8.9 0-4.9 1.3-8.7 6.1-8.7zm0 2c-3.5 0-3.9 3.1-3.9 6.7 0 3.8 0.4 6.9 3.9 6.9 3.4 0 3.8-3.1 3.8-6.9 0-3.6-0.4-6.7-3.8-6.7zm8.9 5.9h9.6v1.8h-9.6zm19-7.9c3.3 0 5.2 1.9 5.2 4.4 0 2-1.3 3.6-3.1 4v0.1c2 0.5 3.4 2 3.4 4.5 0 2.7-1.9 4.8-5.5 4.8-3.3 0-5.7-1.8-6-5.1h2.1c0.2 1.8 1.6 3.2 3.9 3.2 2.3 0 3.4-1.3 3.4-3.1 0-2.5-1.7-3.4-4.8-3.4h-0.6v-1.8h0.6c2.9-0.1 4.5-0.9 4.5-3 0-1.6-1.1-2.8-3.2-2.8-2.1 0-3.3 1.2-3.5 2.9h-2.1c0.2-3 2.4-4.7 5.7-4.7zm11.3 13c0.3 1.8 1.4 2.8 3.4 2.8 2.6 0 4-1.7 3.9-6.8-0.7 1.5-2.4 2.3-4.3 2.3-3.2 0-5.6-2-5.6-5.6 0-3.3 2-5.7 5.7-5.7 4.7 0 6.1 3.3 6.1 8.6 0 5.8-1.3 9.1-5.9 9.1-3.4 0-5.1-2.2-5.4-4.7zm7.1-7.2c0-2.4-1.3-4-3.8-4-2.3 0-3.7 1.5-3.7 3.8 0 2.3 1.2 3.9 3.8 3.9 2.1 0 3.7-1.4 3.7-3.7zm17.5-1.5c2.4 0 4.1 1.2 4.8 2.6v-2.4h2.3v13.1h-2.3v-2.4c-0.7 1.4-2.4 2.7-4.9 2.7-3.5 0-6.2-2.8-6.2-6.9 0-4.1 2.7-6.7 6.3-6.7zm0.4 1.9c-2.4 0-4.5 1.7-4.5 4.8 0 3.1 2.1 4.9 4.5 4.9 2.4 0 4.4-1.8 4.4-4.9 0-3-2-4.8-4.4-4.8zm15.8-1.9c2.4 0 4.1 1.2 4.9 2.6v-2.4h2.2v13.4c0 3.7-2.4 6.2-6.3 6.2-3.5 0-5.9-1.7-6.4-4.5h2.2c0.5 1.6 2 2.6 4.2 2.6 2.3 0 4.1-1.5 4.1-4.3v-2.7c-0.8 1.4-2.5 2.7-4.9 2.7-3.6 0-6.3-2.8-6.3-6.9 0-4.1 2.7-6.7 6.3-6.7zm0.4 1.9c-2.4 0-4.4 1.7-4.4 4.8 0 3.1 2 4.9 4.4 4.9 2.4 0 4.5-1.8 4.5-4.9 0-3-2.1-4.8-4.5-4.8zm16.1 11.7c-3.8 0-6.5-2.7-6.5-6.9 0-4.1 2.6-6.7 6.5-6.7 3.8 0 6.3 2.7 6.3 6.3 0 0.4 0 0.8-0.1 1.3h-10.5c0.2 2.7 2 4.1 4.3 4.1 1.9 0 3.2-1 3.7-2.4h2.3c-0.7 2.4-2.8 4.3-6 4.3zm-4.3-7.8h8.3c0-2.6-1.9-4-4.1-4-2.2 0-3.9 1.4-4.2 4zm25.3-5.8c2.4 0 4.1 1.2 4.9 2.6v-2.4h2.2v13.4c0 3.7-2.4 6.2-6.3 6.2-3.5 0-5.9-1.7-6.4-4.5h2.2c0.5 1.6 2 2.6 4.2 2.6 2.3 0 4.1-1.5 4.1-4.3v-2.7c-0.8 1.4-2.5 2.7-4.9 2.7-3.5 0-6.3-2.8-6.3-6.9 0-4.1 2.8-6.7 6.3-6.7zm0.4 1.9c-2.4 0-4.4 1.7-4.4 4.8 0 3.1 2 4.9 4.4 4.9 2.4 0 4.5-1.8 4.5-4.9 0-3-2.1-4.8-4.5-4.8zm12.6 11.4h-2.2v-13.1h2.2v2.1c0.7-1.4 2.1-2.3 4.2-2.3v2.2h-0.6c-2 0-3.6 0.9-3.6 4zm12.5 0.2c-3.7 0-6.6-2.6-6.6-6.8 0-4.2 3-6.8 6.7-6.8 3.7 0 6.6 2.6 6.6 6.8 0 4.2-3 6.8-6.7 6.8zm0-1.9c2.3 0 4.5-1.6 4.5-4.9 0-3.3-2.2-4.9-4.5-4.9-2.3 0-4.3 1.6-4.3 4.9 0 3.3 2 4.9 4.3 4.9zm21.3 1.7h-2.2v-1.9c-0.9 1.3-2.5 2.1-4.2 2.1-3 0-5.4-1.9-5.4-5.7v-7.7h2.1v7.5c0 2.6 1.5 4 3.7 4 2.3 0 3.8-1.4 3.8-4.2v-7.3h2.2zm10.8-13.3c3.5 0 6.2 2.6 6.2 6.7 0 4.1-2.7 6.9-6.2 6.9-2.4 0-4.1-1.3-5-2.7v8.7h-2.1v-19.4h2.1v2.4c0.8-1.4 2.6-2.6 5-2.6zm-0.5 1.9c-2.4 0-4.5 1.8-4.5 4.8 0 3.1 2.1 4.9 4.5 4.9 2.4 0 4.5-1.8 4.5-4.9 0-3.1-2.1-4.8-4.5-4.8z"/>
</svg>