<svg version="1.2" xmlns="http://www.w3.org/2000/svg" viewBox="0 0 250 98" width="250" height="98">
	<title>1-svg</title>
	<style>
		tspan { white-space:pre } 
		.s0 { fill: #30b656 } 
		.s1 { fill: #848585 } 
	</style>
	<path id="36%" fill-rule="evenodd" class="s0" d="m67.8 41.9c2.9 1.1 7 1.7 10.8 1.7 4.3 0 5.7-1 5.7-3.2 0-2.2-2.1-2.6-5.9-2.6h-3.8v-9.5h2.9c3.8 0 5.9-0.6 5.9-2.5 0-1.7-1.4-2.4-4.8-2.4-4.1 0-7.7 1.2-10.4 2.3l-0.8-12.4c3.5-1.5 7.2-2.6 13.5-2.6 9.2 0 14.6 3.9 14.6 11.1 0 4.2-1.9 7.1-4.7 9.1 3.5 1.9 5.6 5.3 5.6 10.5 0 8.8-6.7 13.4-15.9 13.4-5.7 0-8.8-0.4-13.6-2zm61.3-30l-0.9 12.4c-2.2-0.6-4.5-0.9-7-0.9-7 0-9.1 2.9-9.8 5.7 1.7-1.6 4.1-2.3 7.5-2.3 8.2 0 13.7 4 13.7 12.5 0 9.6-6.2 14.7-16.1 14.7-11.3 0-17.7-7-17.7-20.9 0-14.4 8.6-22.4 21-22.4 3.9 0 7.7 0.7 9.3 1.2zm-8.6 27.5c0-2.3-1.6-3.9-4.7-3.9-2.1 0-3.8 0.6-4.9 1.1-0.2 3.8 1.2 6.8 5.1 6.8 2.8 0 4.5-1.4 4.5-4zm24.7-5.6c-6.3 0-11.2-4.4-11.2-11.6 0-7.2 5.1-11.5 11.2-11.5 6.2 0 11.1 4.3 11.1 11.5 0 7.2-4.8 11.6-11.1 11.6zm3.9 20.2h-9.5l28.8-42.5h9.5zm-6.6-31.4c0 2.4 1 3.9 2.7 3.9 1.7 0 2.6-1.5 2.6-3.9 0-2.4-1-3.7-2.7-3.7-1.6 0-2.6 1.3-2.6 3.7zm29.7 32.3c-6.3 0-11.1-4.4-11.1-11.6 0-7.3 5-11.5 11.1-11.5 6.2 0 11.2 4.2 11.2 11.5 0 7.2-4.9 11.6-11.2 11.6zm-2.6-11.2c0 2.4 1 3.8 2.6 3.8 1.7 0 2.7-1.4 2.7-3.8 0-2.4-1.1-3.7-2.8-3.7-1.5 0-2.5 1.3-2.5 3.7z"/>
	<path id="50-64 age group" fill-rule="evenodd" class="s1" d="m35.9 62v1.6h-9.1v6.4c0.8-1.2 2.5-2 4.4-2 4.3 0 5.8 3 5.8 5.8 0 3.4-1.9 6.3-6.1 6.3-3.5 0-5.6-2-6.1-5h1.7c0.5 2.2 2.1 3.5 4.4 3.5 3.1 0 4.4-2 4.4-4.7 0-2.7-1.5-4.4-4.3-4.4-2 0-3.5 1-4.2 2.5h-1.7v-10zm10.3-0.2c4.9 0 6 4 6 9.1 0 5.2-1.1 9.1-6 9.1-5 0-6.1-3.9-6.1-9.1 0-5.1 1.1-9.1 6-9.1zm0 1.6c-3.7 0-4.3 3.4-4.3 7.5 0 4.2 0.6 7.6 4.3 7.6 3.8 0 4.4-3.4 4.4-7.6 0-4.1-0.6-7.5-4.4-7.5zm8.5 6.6h9.7v1.5h-9.7zm24.2-3.6c-0.4-2-1.6-3.2-3.8-3.2-3.2 0-4.9 2.1-4.8 8.1 0.7-2 2.8-3.2 5.1-3.2 3.5 0 5.7 2.2 5.7 6 0 3.2-1.8 5.9-5.8 5.9-5.4 0-6.6-3.9-6.6-9.1 0-5.6 1.8-9.2 6.4-9.2 3.3 0 5.1 2.1 5.4 4.7zm-8.4 7.4c0 2.6 1.5 4.8 4.7 4.8 2.6 0 4.3-1.7 4.3-4.4 0-2.9-1.6-4.6-4.4-4.6-2.2 0-4.6 1.3-4.6 4.2zm22.5 1.9h-9.5v-1.3l9.1-12.3h2.1v12.1h2.7v1.5h-2.7v4.3h-1.7zm0.1-1.6v-10.1l-7.5 10.1zm19.5-8c2.7 0 4.6 1.4 5.4 3.2v-3h1.7v13.6h-1.7v-3c-0.8 1.7-2.7 3.2-5.4 3.2-3.8 0-6.5-2.8-6.5-7 0-4.3 2.7-7 6.5-7zm0.3 1.5c-2.9 0-5.1 2-5.1 5.5 0 3.4 2.2 5.5 5.1 5.5 2.8 0 5.1-2.1 5.1-5.5 0-3.4-2.3-5.5-5.1-5.5zm16.6-1.5c2.6 0 4.6 1.4 5.3 3.1v-2.9h1.8v14c0 3.8-2.6 6.3-6.4 6.3-3.5 0-5.9-1.8-6.5-4.6h1.7c0.6 1.8 2.3 3.1 4.8 3.1 2.6 0 4.6-1.7 4.6-4.8v-3.4c-0.7 1.7-2.7 3.2-5.3 3.2-3.8 0-6.6-2.8-6.6-7 0-4.3 2.8-7 6.6-7zm0.3 1.5c-2.9 0-5.1 2-5.1 5.5 0 3.4 2.2 5.5 5.1 5.5 2.8 0 5-2.1 5-5.5 0-3.4-2.2-5.5-5-5.5zm16.7 12.5c-3.9 0-6.7-2.7-6.7-7 0-4.4 2.8-7 6.7-7 4 0 6.5 2.8 6.5 6.3 0 0.6 0 0.9-0.1 1.4h-11.3c0.1 3.2 2.4 4.8 4.9 4.8 2.3 0 3.9-1.2 4.4-3h1.8c-0.6 2.6-2.8 4.5-6.2 4.5zm-4.9-7.8h9.6c0-3.1-2.2-4.7-4.8-4.7-2.4 0-4.6 1.6-4.8 4.7zm27.1-6.2c2.7 0 4.6 1.4 5.4 3.1v-2.9h1.8v14c0 3.8-2.7 6.3-6.4 6.3-3.5 0-6-1.8-6.5-4.6h1.7c0.6 1.8 2.3 3.1 4.8 3.1 2.6 0 4.6-1.7 4.6-4.8v-3.4c-0.8 1.7-2.7 3.2-5.4 3.2-3.7 0-6.5-2.8-6.5-7 0-4.3 2.8-7 6.5-7zm0.4 1.5c-2.9 0-5.1 2-5.1 5.5 0 3.4 2.2 5.5 5.1 5.5 2.7 0 5-2.1 5-5.5 0-3.4-2.3-5.5-5-5.5zm12.5 12.3h-1.7v-13.6h1.7v2.4c0.8-1.7 2.3-2.7 4.7-2.7v1.8h-0.5c-2.2 0-4.2 1.1-4.2 4.5zm13.3 0.2c-3.8 0-6.8-2.7-6.8-7 0-4.4 3-7.1 6.9-7.1 3.8 0 6.8 2.7 6.8 7.1 0 4.3-3.1 7-6.9 7zm0-1.5c2.6 0 5.1-1.8 5.1-5.5 0-3.8-2.5-5.5-5.1-5.5-2.6 0-5 1.7-5 5.5 0 3.7 2.4 5.5 5 5.5zm21.9 1.3h-1.8v-2.4c-0.8 1.7-2.6 2.6-4.6 2.6-3.1 0-5.6-1.9-5.6-5.9v-8h1.8v7.8c0 3 1.6 4.6 4.1 4.6 2.6 0 4.3-1.6 4.3-4.9v-7.5h1.8zm11.2-13.8c3.7 0 6.5 2.7 6.5 7 0 4.3-2.8 7-6.5 7-2.8 0-4.7-1.5-5.5-3.2v9.5h-1.7v-20.1h1.7v3c0.8-1.7 2.7-3.2 5.5-3.2zm-0.4 1.5c-2.8 0-5.1 2.1-5.1 5.5 0 3.4 2.3 5.5 5.1 5.5 2.9 0 5.1-2.1 5.1-5.5 0-3.5-2.2-5.5-5.1-5.5z"/>
</svg>