<svg version="1.2" xmlns="http://www.w3.org/2000/svg" viewBox="0 0 250 98" width="250" height="98">
	<title>1-svg</title>
	<style>
		.s0 { fill: #30b656 } 
		.s1 { fill: #848585 } 
	</style>
	<path id="28%" fill-rule="evenodd" class="s0" d="m67.9 44.3c13.6-10.5 15.6-13.1 15.6-17.2 0-2.5-1.5-3.7-4.6-3.7-4.5 0-7.9 1.3-10.8 2.7l-0.9-12.4c3.5-1.5 7.6-3 13.8-3 10.3 0 14.9 5.5 14.9 12.9 0 6.7-2.9 11.2-13.6 19.5h14.2v10.9h-28.6zm36-12.7c-2.4-1.8-4-4.8-4-8.3 0-7.3 5.5-12.6 15.8-12.6 10.4 0 15.9 5.1 15.9 12.6 0 3.5-1.6 6.6-4.1 8.3 3.3 2 5.2 5.5 5.2 9.7 0 8.4-6.3 13.6-17 13.6-10.6 0-16.8-5.2-16.8-13.6 0-4.2 1.9-7.7 5-9.7zm15.6-5.3c0-2.2-1.5-3.5-3.9-3.5-2.2 0-3.6 1.3-3.6 3.5 0 2.2 1.4 3.5 3.7 3.5 2.4 0 3.8-1.3 3.8-3.5zm-3.8 19.4c3.1 0 4.9-1.6 4.9-4.2 0-2.7-1.9-4.5-5-4.5-3 0-4.6 1.8-4.6 4.5 0 2.6 1.7 4.2 4.7 4.2zm29.6-11.9c-6.3 0-11.2-4.4-11.2-11.6 0-7.2 5.1-11.5 11.2-11.5 6.2 0 11.1 4.3 11.1 11.5 0 7.2-4.8 11.6-11.1 11.6zm3.9 20.2h-9.5l28.8-42.4h9.5zm-6.6-31.4c0 2.3 1 3.8 2.7 3.8 1.7 0 2.6-1.5 2.6-3.8 0-2.5-1-3.7-2.7-3.7-1.6 0-2.6 1.2-2.6 3.7zm29.7 32.2c-6.3 0-11.1-4.4-11.1-11.6 0-7.2 5-11.5 11.1-11.5 6.2 0 11.2 4.3 11.2 11.5 0 7.2-4.9 11.6-11.2 11.6zm-2.6-11.2c0 2.4 1 3.9 2.6 3.9 1.7 0 2.7-1.5 2.7-3.9 0-2.4-1.1-3.7-2.7-3.7-1.6 0-2.6 1.3-2.6 3.7z"/>
	<path id="65-75 age group" fill-rule="evenodd" class="s1" d="m35.9 66.5c-0.3-2.1-1.5-3.3-3.8-3.3-3.1 0-4.9 2.2-4.7 8.1 0.6-2 2.7-3.2 5.1-3.2 3.5 0 5.7 2.3 5.7 6.1 0 3.1-1.8 5.9-5.8 5.9-5.4 0-6.6-4-6.6-9.1 0-5.7 1.8-9.3 6.3-9.3 3.4 0 5.1 2.1 5.4 4.8zm-8.3 7.4c0 2.5 1.5 4.7 4.7 4.7 2.6 0 4.2-1.7 4.2-4.4 0-2.9-1.5-4.6-4.3-4.6-2.2 0-4.6 1.3-4.6 4.3zm25.1-11.9v1.6h-9.2v6.4c0.8-1.2 2.6-2 4.5-2 4.3 0 5.8 3 5.8 5.8 0 3.4-1.9 6.3-6.1 6.3-3.5 0-5.7-2-6.1-5h1.7c0.4 2.2 2.1 3.5 4.4 3.5 3 0 4.4-2 4.4-4.7 0-2.7-1.5-4.4-4.4-4.4-2 0-3.5 1-4.1 2.5h-1.7v-10zm3.2 8h9.8v1.5h-9.8zm24.6-7.9v1.3l-7 16.6h-1.7l7-16.4h-10v-1.5zm13.9-0.1v1.5h-9.1v6.4c0.8-1.1 2.5-2 4.4-2 4.3 0 5.8 3.1 5.8 5.9 0 3.4-1.8 6.2-6.1 6.2-3.4 0-5.6-1.9-6.1-4.9h1.7c0.5 2.2 2.1 3.4 4.4 3.4 3.1 0 4.4-2 4.4-4.7 0-2.7-1.5-4.4-4.3-4.4-2 0-3.5 1-4.2 2.5h-1.7v-9.9zm17.1 4.1c2.8 0 4.6 1.5 5.4 3.2v-3h1.8v13.7h-1.8v-3.1c-0.8 1.8-2.7 3.3-5.4 3.3-3.7 0-6.5-2.8-6.5-7.1 0-4.3 2.8-7 6.5-7zm0.3 1.5c-2.8 0-5 2-5 5.5 0 3.5 2.2 5.5 5 5.5 2.8 0 5.1-2.1 5.1-5.5 0-3.4-2.3-5.5-5.1-5.5zm16.6-1.5c2.7 0 4.6 1.5 5.4 3.2v-3h1.7v14c0 3.8-2.6 6.4-6.3 6.4-3.6 0-6-1.8-6.6-4.7h1.8c0.5 1.9 2.3 3.1 4.8 3.1 2.6 0 4.6-1.7 4.6-4.8v-3.4c-0.8 1.8-2.7 3.3-5.4 3.3-3.8 0-6.5-2.8-6.5-7.1 0-4.3 2.7-7 6.5-7zm0.3 1.5c-2.9 0-5.1 2-5.1 5.5 0 3.5 2.2 5.5 5.1 5.5 2.8 0 5.1-2.1 5.1-5.5 0-3.4-2.3-5.5-5.1-5.5zm16.7 12.6c-3.8 0-6.6-2.7-6.6-7.1 0-4.3 2.7-7 6.6-7 4 0 6.5 2.9 6.5 6.3 0 0.6 0 0.9-0.1 1.4h-11.3c0.2 3.2 2.4 4.9 4.9 4.9 2.4 0 3.9-1.2 4.4-3.1h1.9c-0.6 2.6-2.8 4.6-6.3 4.6zm-4.9-7.8h9.6c0.1-3.2-2.2-4.8-4.7-4.8-2.5 0-4.7 1.6-4.9 4.8zm27.2-6.3c2.7 0 4.6 1.5 5.4 3.2v-3h1.7v14c0 3.8-2.6 6.4-6.4 6.4-3.5 0-5.9-1.8-6.5-4.7h1.7c0.6 1.9 2.3 3.1 4.8 3.1 2.6 0 4.7-1.7 4.7-4.8v-3.4c-0.8 1.8-2.7 3.3-5.4 3.3-3.8 0-6.6-2.8-6.6-7.1 0-4.3 2.8-7 6.6-7zm0.3 1.5c-2.9 0-5.1 2-5.1 5.5 0 3.5 2.2 5.5 5.1 5.5 2.8 0 5.1-2.1 5.1-5.5 0-3.4-2.3-5.5-5.1-5.5zm12.6 12.4h-1.8v-13.7h1.8v2.4c0.7-1.6 2.3-2.6 4.6-2.6v1.8h-0.4c-2.3 0-4.2 1-4.2 4.4zm13.2 0.2c-3.8 0-6.7-2.7-6.7-7 0-4.3 3-7 6.8-7 3.8 0 6.8 2.7 6.8 7 0 4.3-3 7-6.9 7zm0-1.5c2.6 0 5.1-1.7 5.1-5.5 0-3.7-2.4-5.5-5-5.5-2.6 0-5.1 1.8-5.1 5.5 0 3.8 2.4 5.5 5 5.5zm21.9 1.3h-1.7v-2.4c-0.8 1.8-2.6 2.7-4.7 2.7-3.1 0-5.5-1.9-5.5-5.9v-8h1.7v7.8c0 3 1.7 4.5 4.2 4.5 2.5 0 4.3-1.6 4.3-4.9v-7.4h1.7zm11.2-13.9c3.7 0 6.5 2.8 6.5 7 0 4.3-2.8 7.1-6.5 7.1-2.7 0-4.6-1.5-5.4-3.2v9.4h-1.8v-20.1h1.8v3c0.8-1.7 2.7-3.2 5.4-3.2zm-0.4 1.6c-2.7 0-5 2.1-5 5.5 0 3.4 2.3 5.5 5 5.5 2.9 0 5.1-2.1 5.1-5.6 0-3.4-2.2-5.4-5.1-5.4z"/>
</svg>